%TF.GenerationSoftware,KiCad,Pcbnew,(5.1.6)-1*%
%TF.CreationDate,2020-07-16T09:20:40+02:00*%
%TF.ProjectId,keyboard_keyboard,6b657962-6f61-4726-945f-6b6579626f61,rev?*%
%TF.SameCoordinates,Original*%
%TF.FileFunction,Paste,Top*%
%TF.FilePolarity,Positive*%
%FSLAX46Y46*%
G04 Gerber Fmt 4.6, Leading zero omitted, Abs format (unit mm)*
G04 Created by KiCad (PCBNEW (5.1.6)-1) date 2020-07-16 09:20:40*
%MOMM*%
%LPD*%
G01*
G04 APERTURE LIST*
%ADD10R,1.200000X1.200000*%
G04 APERTURE END LIST*
D10*
%TO.C,D27*%
X6147000Y-96520000D03*
X2997000Y-96520000D03*
%TD*%
%TO.C,D26*%
X6147000Y-137922000D03*
X2997000Y-137922000D03*
%TD*%
%TO.C,D25*%
X301295000Y-137922000D03*
X298145000Y-137922000D03*
%TD*%
%TO.C,D24*%
X282245000Y-137922000D03*
X279095000Y-137922000D03*
%TD*%
%TO.C,D23*%
X272847000Y-96520000D03*
X269697000Y-96520000D03*
%TD*%
%TO.C,D22*%
X263195000Y-137922000D03*
X260045000Y-137922000D03*
%TD*%
%TO.C,D21*%
X253797000Y-96520000D03*
X250647000Y-96520000D03*
%TD*%
%TO.C,D20*%
X244145000Y-137922000D03*
X240995000Y-137922000D03*
%TD*%
%TO.C,D19*%
X234747000Y-96520000D03*
X231597000Y-96520000D03*
%TD*%
%TO.C,D18*%
X225095000Y-137922000D03*
X221945000Y-137922000D03*
%TD*%
%TO.C,D17*%
X206045000Y-137922000D03*
X202895000Y-137922000D03*
%TD*%
%TO.C,D16*%
X196647000Y-96520000D03*
X193497000Y-96520000D03*
%TD*%
%TO.C,D15*%
X186995000Y-137922000D03*
X183845000Y-137922000D03*
%TD*%
%TO.C,D14*%
X177597000Y-96520000D03*
X174447000Y-96520000D03*
%TD*%
%TO.C,D13*%
X167945000Y-137922000D03*
X164795000Y-137922000D03*
%TD*%
%TO.C,D12*%
X148895000Y-137922000D03*
X145745000Y-137922000D03*
%TD*%
%TO.C,D11*%
X139497000Y-96520000D03*
X136347000Y-96520000D03*
%TD*%
%TO.C,D10*%
X129845000Y-137922000D03*
X126695000Y-137922000D03*
%TD*%
%TO.C,D9*%
X120447000Y-96520000D03*
X117297000Y-96520000D03*
%TD*%
%TO.C,D8*%
X110795000Y-137922000D03*
X107645000Y-137922000D03*
%TD*%
%TO.C,D7*%
X101397000Y-96520000D03*
X98247000Y-96520000D03*
%TD*%
%TO.C,D6*%
X91745000Y-137922000D03*
X88595000Y-137922000D03*
%TD*%
%TO.C,D5*%
X72695000Y-137922000D03*
X69545000Y-137922000D03*
%TD*%
%TO.C,D4*%
X63297000Y-96520000D03*
X60147000Y-96520000D03*
%TD*%
%TO.C,D3*%
X53645000Y-137922000D03*
X50495000Y-137922000D03*
%TD*%
%TO.C,D2*%
X44247000Y-96520000D03*
X41097000Y-96520000D03*
%TD*%
%TO.C,D1*%
X34595000Y-137922000D03*
X31445000Y-137922000D03*
%TD*%
M02*
